<mxfile host="app.diagrams.net" agent="Mozilla/5.0 (Windows NT 10.0; Win64; x64) AppleWebKit/537.36 (KHTML, like Gecko) Chrome/132.0.0.0 YaBrowser/25.2.0.0 Safari/537.36" version="26.1.1">
  <diagram name="Страница — 1" id="yYfoGH0o_CQhlDXCRBEz">
    <mxGraphModel dx="1687" dy="931" grid="0" gridSize="10" guides="1" tooltips="1" connect="1" arrows="1" fold="1" page="1" pageScale="1" pageWidth="827" pageHeight="1169" math="0" shadow="0">
      <root>
        <mxCell id="0" />
        <mxCell id="1" parent="0" />
        <mxCell id="x0botqKWWERJhsQdDZAZ-5" style="edgeStyle=orthogonalEdgeStyle;rounded=0;orthogonalLoop=1;jettySize=auto;html=1;exitX=0.5;exitY=1;exitDx=0;exitDy=0;endArrow=none;startFill=0;entryX=0.5;entryY=0;entryDx=0;entryDy=0;" edge="1" parent="1" source="x0botqKWWERJhsQdDZAZ-3" target="x0botqKWWERJhsQdDZAZ-28">
          <mxGeometry relative="1" as="geometry">
            <mxPoint x="160" y="660" as="targetPoint" />
            <Array as="points" />
          </mxGeometry>
        </mxCell>
        <mxCell id="x0botqKWWERJhsQdDZAZ-2" style="edgeStyle=orthogonalEdgeStyle;rounded=0;orthogonalLoop=1;jettySize=auto;html=1;exitX=0.5;exitY=1;exitDx=0;exitDy=0;" edge="1" parent="1" source="x0botqKWWERJhsQdDZAZ-1">
          <mxGeometry relative="1" as="geometry">
            <mxPoint x="159.8571428571429" y="90" as="targetPoint" />
          </mxGeometry>
        </mxCell>
        <mxCell id="x0botqKWWERJhsQdDZAZ-1" value="Начало" style="ellipse;whiteSpace=wrap;html=1;" vertex="1" parent="1">
          <mxGeometry x="120" y="20" width="80" height="40" as="geometry" />
        </mxCell>
        <mxCell id="x0botqKWWERJhsQdDZAZ-4" style="edgeStyle=orthogonalEdgeStyle;rounded=0;orthogonalLoop=1;jettySize=auto;html=1;exitX=1;exitY=0.5;exitDx=0;exitDy=0;entryX=0.5;entryY=0;entryDx=0;entryDy=0;endArrow=none;startFill=0;" edge="1" parent="1" source="x0botqKWWERJhsQdDZAZ-3" target="x0botqKWWERJhsQdDZAZ-8">
          <mxGeometry relative="1" as="geometry">
            <mxPoint x="280" y="130" as="targetPoint" />
          </mxGeometry>
        </mxCell>
        <mxCell id="x0botqKWWERJhsQdDZAZ-3" value="Ранг процесса - 0?" style="rhombus;whiteSpace=wrap;html=1;" vertex="1" parent="1">
          <mxGeometry x="95" y="90" width="130" height="80" as="geometry" />
        </mxCell>
        <mxCell id="x0botqKWWERJhsQdDZAZ-6" value="Да" style="text;html=1;align=center;verticalAlign=middle;resizable=0;points=[];autosize=1;strokeColor=none;fillColor=none;" vertex="1" parent="1">
          <mxGeometry x="217" y="102" width="40" height="30" as="geometry" />
        </mxCell>
        <mxCell id="x0botqKWWERJhsQdDZAZ-7" value="Нет" style="text;html=1;align=center;verticalAlign=middle;resizable=0;points=[];autosize=1;strokeColor=none;fillColor=none;" vertex="1" parent="1">
          <mxGeometry x="158" y="165" width="40" height="30" as="geometry" />
        </mxCell>
        <mxCell id="x0botqKWWERJhsQdDZAZ-9" style="edgeStyle=orthogonalEdgeStyle;rounded=0;orthogonalLoop=1;jettySize=auto;html=1;exitX=0.5;exitY=1;exitDx=0;exitDy=0;" edge="1" parent="1" source="x0botqKWWERJhsQdDZAZ-8">
          <mxGeometry relative="1" as="geometry">
            <mxPoint x="160" y="240" as="targetPoint" />
            <Array as="points">
              <mxPoint x="280" y="240" />
            </Array>
          </mxGeometry>
        </mxCell>
        <mxCell id="x0botqKWWERJhsQdDZAZ-8" value="Инициализация операций" style="rounded=0;whiteSpace=wrap;html=1;" vertex="1" parent="1">
          <mxGeometry x="230" y="170" width="100" height="50" as="geometry" />
        </mxCell>
        <mxCell id="x0botqKWWERJhsQdDZAZ-11" value="Передача информации об операциях по средствам функций&amp;nbsp;Bcast" style="rounded=0;whiteSpace=wrap;html=1;" vertex="1" parent="1">
          <mxGeometry x="50" y="250" width="220" height="50" as="geometry" />
        </mxCell>
        <mxCell id="x0botqKWWERJhsQdDZAZ-12" value="Инициализация локальных времен" style="rounded=0;whiteSpace=wrap;html=1;" vertex="1" parent="1">
          <mxGeometry x="50" y="310" width="220" height="50" as="geometry" />
        </mxCell>
        <mxCell id="x0botqKWWERJhsQdDZAZ-14" style="edgeStyle=orthogonalEdgeStyle;rounded=0;orthogonalLoop=1;jettySize=auto;html=1;exitX=1;exitY=0.5;exitDx=0;exitDy=0;" edge="1" parent="1" source="x0botqKWWERJhsQdDZAZ-13">
          <mxGeometry relative="1" as="geometry">
            <mxPoint x="160" y="380" as="targetPoint" />
            <Array as="points">
              <mxPoint x="360" y="440" />
              <mxPoint x="360" y="760" />
              <mxPoint x="730" y="760" />
              <mxPoint x="730" y="380" />
            </Array>
          </mxGeometry>
        </mxCell>
        <mxCell id="x0botqKWWERJhsQdDZAZ-13" value="Были рассмотрены &lt;br&gt;еще не все операции?" style="rhombus;whiteSpace=wrap;html=1;" vertex="1" parent="1">
          <mxGeometry x="57.5" y="400" width="205" height="80" as="geometry" />
        </mxCell>
        <mxCell id="x0botqKWWERJhsQdDZAZ-15" value="Нет" style="text;html=1;align=center;verticalAlign=middle;resizable=0;points=[];autosize=1;strokeColor=none;fillColor=none;" vertex="1" parent="1">
          <mxGeometry x="160" y="480" width="40" height="30" as="geometry" />
        </mxCell>
        <mxCell id="x0botqKWWERJhsQdDZAZ-16" value="Да" style="text;html=1;align=center;verticalAlign=middle;resizable=0;points=[];autosize=1;strokeColor=none;fillColor=none;" vertex="1" parent="1">
          <mxGeometry x="250" y="410" width="40" height="30" as="geometry" />
        </mxCell>
        <mxCell id="x0botqKWWERJhsQdDZAZ-20" value="Переход к следующей операции" style="rounded=0;whiteSpace=wrap;html=1;" vertex="1" parent="1">
          <mxGeometry x="249.75" y="710" width="220" height="30" as="geometry" />
        </mxCell>
        <mxCell id="x0botqKWWERJhsQdDZAZ-22" style="edgeStyle=orthogonalEdgeStyle;rounded=0;orthogonalLoop=1;jettySize=auto;html=1;exitX=1;exitY=0.5;exitDx=0;exitDy=0;" edge="1" parent="1" source="x0botqKWWERJhsQdDZAZ-21">
          <mxGeometry relative="1" as="geometry">
            <mxPoint x="360" y="450" as="targetPoint" />
            <Array as="points">
              <mxPoint x="520" y="500" />
              <mxPoint x="520" y="640" />
              <mxPoint x="650" y="640" />
            </Array>
          </mxGeometry>
        </mxCell>
        <mxCell id="x0botqKWWERJhsQdDZAZ-21" value="Зависимость найдена?" style="rhombus;whiteSpace=wrap;html=1;" vertex="1" parent="1">
          <mxGeometry x="257" y="460" width="205" height="80" as="geometry" />
        </mxCell>
        <mxCell id="x0botqKWWERJhsQdDZAZ-23" value="Да" style="text;html=1;align=center;verticalAlign=middle;resizable=0;points=[];autosize=1;strokeColor=none;fillColor=none;" vertex="1" parent="1">
          <mxGeometry x="460" y="470" width="40" height="30" as="geometry" />
        </mxCell>
        <mxCell id="x0botqKWWERJhsQdDZAZ-24" value="Нет" style="text;html=1;align=center;verticalAlign=middle;resizable=0;points=[];autosize=1;strokeColor=none;fillColor=none;" vertex="1" parent="1">
          <mxGeometry x="368" y="532" width="40" height="30" as="geometry" />
        </mxCell>
        <mxCell id="x0botqKWWERJhsQdDZAZ-18" value="Вычисление времени начала операции текущей зависимости" style="rounded=0;whiteSpace=wrap;html=1;" vertex="1" parent="1">
          <mxGeometry x="420" y="522" width="200" height="50" as="geometry" />
        </mxCell>
        <mxCell id="x0botqKWWERJhsQdDZAZ-25" value="Сохранение локального времени операции" style="rounded=0;whiteSpace=wrap;html=1;" vertex="1" parent="1">
          <mxGeometry x="249.25" y="660" width="220" height="30" as="geometry" />
        </mxCell>
        <mxCell id="x0botqKWWERJhsQdDZAZ-26" value="Переход к следующей зависимости" style="rounded=0;whiteSpace=wrap;html=1;" vertex="1" parent="1">
          <mxGeometry x="440" y="580" width="160" height="50" as="geometry" />
        </mxCell>
        <mxCell id="x0botqKWWERJhsQdDZAZ-27" value="Сбор результата&lt;br&gt;(Allreduce)" style="rounded=0;whiteSpace=wrap;html=1;" vertex="1" parent="1">
          <mxGeometry x="100" y="532" width="120" height="60" as="geometry" />
        </mxCell>
        <mxCell id="x0botqKWWERJhsQdDZAZ-28" value="Конец" style="ellipse;whiteSpace=wrap;html=1;" vertex="1" parent="1">
          <mxGeometry x="120" y="760" width="80" height="40" as="geometry" />
        </mxCell>
      </root>
    </mxGraphModel>
  </diagram>
</mxfile>
